<svg xmlns="http://www.w3.org/2000/svg" xmlns:xlink="http://www.w3.org/1999/xlink" width="512" zoomAndPan="magnify" viewBox="0 0 384 383.999986" height="512" preserveAspectRatio="xMidYMid meet" version="1.0"><path fill="#ffde59" d="M 358.65625 250.570312 L 252 192 L 358.65625 133.429688 C 367.503906 128.574219 370.628906 117.390625 365.582031 108.652344 L 350.972656 83.347656 C 345.925781 74.605469 334.679688 71.722656 326.050781 76.953125 L 222 140.039062 L 224.605469 18.386719 C 224.820312 8.296875 216.703125 0 206.609375 0 L 177.390625 0 C 167.296875 0 159.179688 8.296875 159.394531 18.386719 L 162 140.039062 L 57.949219 76.957031 C 49.320312 71.722656 38.074219 74.609375 33.027344 83.347656 L 18.417969 108.652344 C 13.371094 117.394531 16.496094 128.574219 25.34375 133.429688 L 132 192 L 25.34375 250.570312 C 16.496094 255.425781 13.371094 266.609375 18.417969 275.347656 L 33.027344 300.652344 C 38.074219 309.394531 49.320312 312.277344 57.949219 307.046875 L 162 243.960938 L 159.394531 365.613281 C 159.179688 375.703125 167.296875 384 177.390625 384 L 206.609375 384 C 216.703125 384 224.824219 375.703125 224.605469 365.613281 L 222 243.960938 L 326.050781 307.042969 C 334.679688 312.277344 345.925781 309.390625 350.972656 300.652344 L 365.582031 275.347656 C 370.628906 266.605469 367.503906 255.425781 358.65625 250.570312 Z M 358.65625 250.570312 " fill-opacity="1" fill-rule="nonzero"/></svg>