<svg xmlns="http://www.w3.org/2000/svg" xmlns:xlink="http://www.w3.org/1999/xlink" width="512" zoomAndPan="magnify" viewBox="0 0 384 383.999986" height="512" preserveAspectRatio="xMidYMid meet" version="1.0"><path fill="#ffde59" d="M 380.484375 54.425781 L 329.574219 3.515625 C 324.886719 -1.171875 317.289062 -1.171875 312.601562 3.515625 L 295.628906 20.488281 C 290.941406 25.175781 290.941406 32.773438 295.628906 37.460938 L 238.125 94.964844 C 203.191406 80.191406 161.324219 86.917969 132.847656 115.386719 L 14.0625 234.171875 C -4.679688 252.914062 -4.679688 283.3125 14.0625 302.054688 L 81.945312 369.9375 C 100.6875 388.679688 131.085938 388.679688 149.828125 369.9375 L 268.621094 251.144531 C 297.089844 222.675781 303.816406 180.800781 289.042969 145.867188 L 346.546875 88.363281 C 351.234375 93.050781 358.828125 93.050781 363.515625 88.363281 L 380.488281 71.390625 C 385.171875 66.710938 385.171875 59.113281 380.484375 54.425781 Z M 134.414062 317.46875 L 66.53125 249.585938 L 158.0625 158.054688 L 225.945312 225.9375 Z M 134.414062 317.46875 " fill-opacity="1" fill-rule="nonzero"/></svg>