<svg xmlns="http://www.w3.org/2000/svg" xmlns:xlink="http://www.w3.org/1999/xlink" width="512" zoomAndPan="magnify" viewBox="0 0 384 383.999986" height="512" preserveAspectRatio="xMidYMid meet" version="1.0"><path fill="rgb(100%, 87.059021%, 34.899902%)" d="M 117.449219 288.675781 L 94.273438 264.824219 C 87.898438 259.125 85.648438 249.824219 87.824219 241.351562 C 90.074219 234.675781 93.074219 225.976562 97.351562 216 L 18 216 C 11.535156 216 5.558594 212.550781 2.359375 206.925781 C -0.84375 201.300781 -0.78125 194.398438 2.519531 188.851562 L 41.871094 122.476562 C 51.59375 106.050781 69.246094 95.324219 88.351562 95.324219 L 150 95.324219 C 151.800781 93 153.601562 90.226562 155.398438 87.523438 C 216.824219 -3.050781 308.324219 -6.105469 362.925781 3.957031 C 371.699219 5.558594 378.449219 12.324219 380.023438 21.046875 C 390.074219 75.675781 387.074219 167.175781 296.476562 228.601562 C 293.851562 230.398438 290.324219 232.199219 288 233.324219 L 288 295.648438 C 288 314.773438 277.949219 332.398438 261.523438 342.148438 L 195.148438 381.449219 C 189.601562 384.75 182.699219 384.824219 177.074219 381.675781 C 171.449219 378.449219 168 372.449219 168 366 L 168 285.601562 C 157.425781 289.199219 148.199219 292.273438 141.226562 294.523438 C 132.824219 297.226562 123.675781 294.898438 117.449219 288.675781 Z M 288 125.324219 C 304.574219 125.324219 318 112.574219 318 95.324219 C 318 79.425781 304.574219 65.324219 288 65.324219 C 271.425781 65.324219 258 79.425781 258 95.324219 C 258 112.574219 271.425781 125.324219 288 125.324219 Z M 288 125.324219 " fill-opacity="1" fill-rule="nonzero"/></svg>